<svg width="709.649" height="814.089" viewBox="0 0 709.649 814.089" xmlns="http://www.w3.org/2000/svg"><g id="svgGroup" stroke-linecap="round" fill-rule="evenodd" font-size="9pt" stroke="#000" stroke-width="0.25mm" fill="#000" style="stroke:#000;stroke-width:0.25mm;fill:#000"><path d="M 415.752 702.473 L 415.752 814.089 L 303.112 814.089 L 303.112 703.497 Q 238.6 694.281 183.304 663.561 Q 128.008 632.841 87.56 586.249 Q 47.112 539.657 23.56 480.265 Q 0.008 420.873 0.008 353.289 Q 0.008 279.561 28.168 215.049 Q 56.328 150.537 104.456 102.921 Q 152.584 55.305 217.096 27.657 Q 281.608 0.009 355.336 0.009 Q 429.064 0.009 493.576 27.657 Q 558.088 55.305 606.216 102.921 Q 654.344 150.537 681.992 215.049 Q 709.64 279.561 709.64 353.289 Q 709.64 419.849 687.112 478.217 Q 664.584 536.585 625.16 583.177 Q 585.736 629.769 531.976 661.001 Q 478.216 692.233 415.752 702.473 Z M 303.112 489.481 L 415.752 489.481 L 415.752 585.737 Q 454.664 576.521 487.944 555.017 Q 521.224 533.513 545.288 502.793 Q 569.352 472.073 583.176 434.185 Q 597 396.297 597 353.289 Q 597 303.113 578.056 259.593 Q 559.112 216.073 525.832 183.817 Q 492.552 151.561 448.52 133.129 Q 404.488 114.697 355.336 114.697 Q 305.16 114.697 261.64 133.129 Q 218.12 151.561 185.352 183.817 Q 152.584 216.073 133.64 259.593 Q 114.696 303.113 114.696 353.289 Q 114.696 397.321 129.032 436.233 Q 143.368 475.145 168.456 505.865 Q 193.544 536.585 227.848 557.577 Q 262.152 578.569 303.112 587.785 L 303.112 489.481 Z"/></g></svg>