<svg width="3436.552" height="814.089" viewBox="0 0 3436.552 814.089" xmlns="http://www.w3.org/2000/svg"><g id="svgGroup" stroke-linecap="round" fill-rule="evenodd" font-size="9pt" stroke="#000" stroke-width="0.25mm" fill="#000" style="stroke:#000;stroke-width:0.25mm;fill:#000"><path d="M 3279.88 0.009 L 3436.552 0.009 L 3077.128 378.889 L 3436.552 707.593 L 3266.568 707.593 L 3001.352 461.833 L 3001.352 460.809 L 2946.056 520.201 L 2946.056 707.593 L 2834.44 707.593 L 2834.44 0.009 L 2946.056 0.009 L 2946.056 164.873 L 2946.056 286.729 L 2946.056 353.289 L 3279.88 0.009 Z M 2547.72 420.873 L 2705.416 707.593 L 2576.392 707.593 L 2421.768 430.089 L 2400.264 430.089 L 2295.816 430.089 L 2295.816 707.593 L 2182.152 707.593 L 2182.152 316.425 L 2295.816 316.425 L 2489.352 316.425 Q 2510.856 316.425 2529.288 308.233 Q 2547.72 300.041 2562.056 285.705 Q 2576.392 271.369 2584.584 252.937 A 96.501 96.501 0 0 0 2592.743 215.718 A 111.396 111.396 0 0 0 2592.776 213.001 Q 2592.776 192.521 2584.584 173.577 Q 2576.392 154.633 2562.056 140.809 Q 2547.72 126.985 2529.288 118.793 A 96.501 96.501 0 0 0 2492.07 110.634 A 111.396 111.396 0 0 0 2489.352 110.601 L 2295.816 110.601 L 2182.152 110.601 L 2182.152 0.009 L 2295.816 0.009 L 2489.352 0.009 Q 2529.288 0.009 2565.64 13.833 Q 2601.992 27.657 2630.664 52.233 Q 2659.336 76.809 2678.28 110.601 Q 2697.224 144.393 2702.344 184.329 Q 2703.368 192.521 2704.392 200.201 Q 2705.416 207.881 2705.416 216.073 Q 2704.392 250.889 2693.128 283.657 Q 2681.864 316.425 2660.872 344.073 Q 2639.88 371.721 2611.208 391.689 Q 2582.536 411.657 2547.72 420.873 Z M 1336.328 0.009 L 1336.328 455.689 Q 1336.328 507.913 1316.36 553.993 Q 1296.392 600.073 1262.088 633.865 Q 1227.784 667.657 1181.704 687.625 Q 1135.624 707.593 1083.4 707.593 Q 1031.176 707.593 985.608 687.625 Q 940.04 667.657 906.248 633.865 Q 872.456 600.073 852.488 553.993 Q 832.52 507.913 832.52 455.689 L 832.52 119.817 L 832.52 0.009 L 946.184 0.009 L 946.184 119.817 L 946.184 455.689 Q 946.184 485.385 956.936 510.473 Q 967.688 535.561 986.12 553.993 Q 1004.552 572.425 1029.64 583.177 Q 1054.728 593.929 1083.4 593.929 Q 1112.072 593.929 1137.672 583.177 Q 1163.272 572.425 1182.216 553.993 Q 1201.16 535.561 1211.912 510.473 Q 1222.664 485.385 1222.664 455.689 L 1222.664 0.009 L 1336.328 0.009 Z M 1581.064 707.593 L 1543.176 707.593 L 1508.36 707.593 L 1508.36 0.009 L 1581.064 0.009 L 2125.832 705.545 L 2125.832 707.593 L 1985.544 707.593 L 1621 244.745 L 1621 707.593 L 1581.064 707.593 Z M 415.752 702.473 L 415.752 814.089 L 303.112 814.089 L 303.112 703.497 Q 238.6 694.281 183.304 663.561 Q 128.008 632.841 87.56 586.249 Q 47.112 539.657 23.56 480.265 Q 0.008 420.873 0.008 353.289 Q 0.008 279.561 28.168 215.049 Q 56.328 150.537 104.456 102.921 Q 152.584 55.305 217.096 27.657 Q 281.608 0.009 355.336 0.009 Q 429.064 0.009 493.576 27.657 Q 558.088 55.305 606.216 102.921 Q 654.344 150.537 681.992 215.049 Q 709.64 279.561 709.64 353.289 Q 709.64 419.849 687.112 478.217 Q 664.584 536.585 625.16 583.177 Q 585.736 629.769 531.976 661.001 Q 478.216 692.233 415.752 702.473 Z M 303.112 489.481 L 415.752 489.481 L 415.752 585.737 Q 454.664 576.521 487.944 555.017 Q 521.224 533.513 545.288 502.793 Q 569.352 472.073 583.176 434.185 Q 597 396.297 597 353.289 Q 597 303.113 578.056 259.593 Q 559.112 216.073 525.832 183.817 Q 492.552 151.561 448.52 133.129 Q 404.488 114.697 355.336 114.697 Q 305.16 114.697 261.64 133.129 Q 218.12 151.561 185.352 183.817 Q 152.584 216.073 133.64 259.593 Q 114.696 303.113 114.696 353.289 Q 114.696 397.321 129.032 436.233 Q 143.368 475.145 168.456 505.865 Q 193.544 536.585 227.848 557.577 Q 262.152 578.569 303.112 587.785 L 303.112 489.481 Z"/></g></svg>