<svg width="709.649" height="814.089" viewBox="0 0 709.649 814.089" xmlns="http://www.w3.org/2000/svg">
  <path d="M415.752 702.473v111.616h-112.64V703.497q-64.512-9.216-119.808-39.936T87.56 586.249t-64-105.984T.008 353.289q0-73.728 28.16-138.24t76.288-112.128 112.64-75.264T355.336.009t138.24 27.648 112.64 75.264 75.776 112.128 27.648 138.24q0 66.56-22.528 124.928t-61.952 104.96-93.184 77.824-116.224 41.472m-112.64-212.992h112.64v96.256q38.912-9.216 72.192-30.72t57.344-52.224 37.888-68.608T597 353.289q0-50.176-18.944-93.696t-52.224-75.776-77.312-50.688-93.184-18.432q-50.176 0-93.696 18.432t-76.288 50.688-51.712 75.776-18.944 93.696q0 44.032 14.336 82.944t39.424 69.632 59.392 51.712 75.264 30.208z"/>
</svg>
